<?xml version="1.0" encoding="UTF-8" standalone="no"?>
<!DOCTYPE svg PUBLIC "-//W3C//DTD SVG 1.1//EN" "http://www.w3.org/Graphics/SVG/1.1/DTD/svg11.dtd">
<svg width="100%" height="100%" viewBox="0 0 800 600" version="1.1" xmlns="http://www.w3.org/2000/svg" xmlns:xlink="http://www.w3.org/1999/xlink" xml:space="preserve" xmlns:serif="http://www.serif.com/" style="fill-rule:evenodd;clip-rule:evenodd;stroke-linejoin:round;stroke-miterlimit:2;">
    <g transform="matrix(1,0,0,1,-12.9606,3.04955)">
        <g transform="matrix(0.465297,-0.626225,0.616816,0.458306,3.37497,365.174)">
            <rect x="153.344" y="144.314" width="426.938" height="186.785" style="fill:white;fill-opacity:0;"/>
            <path d="M580.282,144.314L153.344,144.314L153.344,331.099L580.282,331.099L580.282,144.314ZM183.346,174.773L183.346,300.641L550.281,300.641L550.281,174.773L183.346,174.773Z"/>
        </g>
        <g transform="matrix(1,0,0,1,-59.4663,-41.3469)">
            <path d="M707.176,123.314C703.997,117.233 698.365,112.806 691.706,111.152C685.047,109.499 677.998,110.778 672.345,114.666C659.494,123.504 645.863,132.878 645.863,132.878L557.41,132.878L557.41,237.326L645.863,237.326C645.863,237.326 659.993,246.602 673.043,255.169C678.608,258.821 685.445,259.982 691.903,258.372C698.361,256.761 703.852,252.524 707.049,246.686C708.501,244.035 709.791,241.68 710.714,239.995C711.673,238.244 712.175,236.279 712.175,234.282C712.175,218.998 712.175,150.752 712.175,135.786C712.175,133.876 711.713,131.994 710.829,130.302C709.926,128.574 708.637,126.109 707.176,123.314Z" style="fill:white;fill-opacity:0;"/>
            <path d="M707.176,123.314C703.997,117.233 698.365,112.806 691.706,111.152C685.047,109.499 677.998,110.778 672.345,114.666C659.494,123.504 645.863,132.878 645.863,132.878L557.41,132.878L557.41,237.326L645.863,237.326C645.863,237.326 659.993,246.602 673.043,255.169C678.608,258.821 685.445,259.982 691.903,258.372C698.361,256.761 703.852,252.524 707.049,246.686C708.501,244.035 709.791,241.68 710.714,239.995C711.673,238.244 712.175,236.279 712.175,234.282C712.175,218.998 712.175,150.752 712.175,135.786C712.175,133.876 711.713,131.994 710.829,130.302C709.926,128.574 708.637,126.109 707.176,123.314ZM686.433,134.157C686.357,134.013 686.224,133.908 686.066,133.869C685.909,133.829 685.742,133.86 685.608,133.952C672.757,142.789 659.126,152.164 659.126,152.164C655.223,154.848 650.599,156.284 645.863,156.284L580.816,156.284L580.816,213.92L645.863,213.92C650.427,213.92 654.892,215.254 658.707,217.759C658.707,217.759 672.838,227.035 685.888,235.602C685.991,235.67 686.119,235.691 686.239,235.661C686.359,235.631 686.461,235.553 686.52,235.444L688.769,231.336L688.769,138.627L686.433,134.157Z"/>
        </g>
        <g transform="matrix(0.658683,0,0,0.658683,74.2154,144.174)">
            <circle cx="442.29" cy="430.972" r="95.299" style="fill:white;fill-opacity:0;"/>
            <path d="M442.29,335.674C494.887,335.674 537.588,378.376 537.588,430.972C537.588,483.569 494.887,526.271 442.29,526.271C389.693,526.271 346.991,483.569 346.991,430.972C346.991,378.376 389.693,335.674 442.29,335.674ZM442.29,371.208C475.275,371.208 502.054,397.988 502.054,430.972C502.054,463.957 475.275,490.737 442.29,490.737C409.305,490.737 382.526,463.957 382.526,430.972C382.526,397.988 409.305,371.208 442.29,371.208Z"/>
        </g>
        <g transform="matrix(0.658683,0,0,0.658683,214.361,144.174)">
            <circle cx="442.29" cy="430.972" r="95.299" style="fill:white;fill-opacity:0;"/>
            <path d="M442.29,335.674C494.887,335.674 537.588,378.376 537.588,430.972C537.588,483.569 494.887,526.271 442.29,526.271C389.693,526.271 346.991,483.569 346.991,430.972C346.991,378.376 389.693,335.674 442.29,335.674ZM442.29,371.208C475.275,371.208 502.054,397.988 502.054,430.972C502.054,463.957 475.275,490.737 442.29,490.737C409.305,490.737 382.526,463.957 382.526,430.972C382.526,397.988 409.305,371.208 442.29,371.208Z"/>
        </g>
        <g transform="matrix(0.312503,-0.435855,0.512872,0.367723,264.507,327.595)">
            <path d="M227.63,187.144L265.869,130.926L418.347,130.926L418.347,288.83L92.852,288.83L92.852,187.144L227.63,187.144Z" style="fill:white;fill-opacity:0;"/>
            <path d="M227.63,187.144L265.869,130.926L418.347,130.926L418.347,288.83L92.852,288.83L92.852,187.144L227.63,187.144ZM136.494,224.233L136.494,251.741L374.704,251.741L374.704,168.014L291.051,168.014L265.415,205.705C257.616,217.171 243.214,224.233 227.63,224.233L136.494,224.233Z"/>
        </g>
    </g>
</svg>
